<svg xmlns="http://www.w3.org/2000/svg"
 xmlns:xlink="http://www.w3.org/1999/xlink"
 width="36px" height="36px"  viewBox="0 0 36 36">
<path fill-rule="evenodd"  fill="#ffffff"
 d="M17.99997,1.9977417 C9.162384,1.9977417 1.9976807,9.1622925 1.9976807,17.99997 C1.9976807,26.838287 9.162384,34.002197 17.99997,34.002197 C26.838226,34.002197 34.00226,26.838287 34.00226,17.99997 C34.00226,9.1622925 26.838226,1.9977417 17.99997,1.9977417 ZM20.71524,26.900085 C20.71524,26.900085 15.051544,26.900085 15.051544,26.900085 C15.051544,26.900085 15.051544,21.955597 15.051544,21.955597 C15.051544,21.955597 20.71524,21.955597 20.71524,21.955597 C20.71524,21.955597 20.71524,26.900085 20.71524,26.900085 ZM20.71524,20.786865 C20.71524,20.786865 15.051544,20.786865 15.051544,20.786865 C15.051544,20.786865 15.051544,9.189758 15.051544,9.189758 C15.051544,9.189758 20.71524,9.189758 20.71524,9.189758 C20.71524,9.189758 20.71524,20.786865 20.71524,20.786865 Z"/>
</svg>