<svg xmlns="http://www.w3.org/2000/svg"
 xmlns:xlink="http://www.w3.org/1999/xlink"
 width="27px" height="27px"  viewBox="0 0 27 27">
<path fill-rule="evenodd"  fill="#000000"
 d="M24.74054,23.835327 C24.74054,23.835327 24.059814,24.516052 24.059814,24.516052 C23.376282,25.199585 22.268066,25.199585 21.584473,24.516052 C21.584473,24.516052 17.302185,20.233704 17.302185,20.233704 C15.765015,21.196777 13.947815,21.75415 12.000183,21.75415 C6.477234,21.75415 1.9998779,17.276855 1.9998779,11.753845 C1.9998779,6.230835 6.477234,1.75354 12.000183,1.75354 C17.523254,1.75354 22.000488,6.230835 22.000488,11.753845 C22.000488,13.712891 21.436707,15.539978 20.463318,17.082764 C20.463318,17.082764 24.74054,21.359985 24.74054,21.359985 C25.424133,22.04358 25.424133,23.151794 24.74054,23.835327 ZM12.000183,4.521179 C8.005676,4.521179 4.767517,7.7593994 4.767517,11.753845 C4.767517,15.748291 8.005676,18.98645 12.000183,18.98645 C15.99469,18.98645 19.23285,15.748291 19.23285,11.753845 C19.23285,7.7593994 15.99469,4.521179 12.000183,4.521179 Z"/>
</svg>